<?xml version="1.0" encoding="UTF-8" standalone="no" ?>
<!DOCTYPE svg PUBLIC "-//W3C//DTD SVG 1.1//EN" "http://www.w3.org/Graphics/SVG/1.1/DTD/svg11.dtd">
<svg xmlns="http://www.w3.org/2000/svg" xmlns:xlink="http://www.w3.org/1999/xlink" version="1.1" width="1080" height="1080" viewBox="0 0 1080 1080" xml:space="preserve">
<desc>Created with Fabric.js 5.2.4</desc>
<defs>
</defs>
<g transform="matrix(1 0 0 1 540 540)" id="a05439bd-3751-43ed-ac0c-ea5666b430f6"  >
</g>
<g transform="matrix(1 0 0 1 540 540)" id="e1092000-24fd-4c83-aeed-a5dfe38a9bb9"  >
<rect style="stroke: none; stroke-width: 1; stroke-dasharray: none; stroke-linecap: butt; stroke-dashoffset: 0; stroke-linejoin: miter; stroke-miterlimit: 4; fill: rgb(255,255,255); fill-rule: nonzero; opacity: 1; visibility: hidden;" vector-effect="non-scaling-stroke"  x="-540" y="-540" rx="0" ry="0" width="1080" height="1080" />
</g>
<g transform="matrix(1 0 0 1 562.36 567.94)"  >
<g style="" vector-effect="non-scaling-stroke"   >
		<g transform="matrix(12.5 0 0 12.5 0 -44.31)"  >
<path style="stroke: none; stroke-width: 1; stroke-dasharray: none; stroke-linecap: butt; stroke-dashoffset: 0; stroke-linejoin: miter; stroke-miterlimit: 4; fill: rgb(0,220,130); fill-rule: nonzero; opacity: 1;" vector-effect="non-scaling-stroke"  transform=" translate(-32, -28.46)" d="M 54.1076508 14.717124 C 54.102348400000004 14.621624 54.0838509 14.529523900000001 54.0517502 14.4392233 C 54.0415497 14.4107237 54.0346489 14.3824234 54.0219498 14.3551235 C 53.9738503 14.2505235 53.9129486 14.1512241 53.8286515 14.0666237 C 53.8286515 14.0666237 50.4038506 10.6271238 46.9751511 7.190623799999999 C 45.2612496 5.471823699999999 43.5454483 3.755023799999999 42.2563515 2.467923699999999 C 41.3032494 1.516823599999999 40.675350200000004 0.8898235999999993 40.232948300000004 0.5002235999999991 C 40.2260513 0.4904235999999991 40.219249700000006 0.4816235999999991 40.2124481 0.4718235999999991 C 40.211448600000004 0.4699235999999991 40.210449200000006 0.4689235999999991 40.2094497 0.4670235999999991 L 40.2016486 0.4728235999999991 C 39.580249699999996 -0.06867640000000086 39.334648 -0.12757640000000092 39.053748999999996 0.04222359999999914 L 12.979049599999996 0.04312359999999914 C 11.271050399999996 0.04312359999999914 9.881349499999995 1.4338236999999991 9.881349499999995 3.142723699999999 L 9.881349499999995 53.708225899999995 C 9.881349499999995 54.574425399999996 10.218250199999995 55.3888251 10.833550399999995 56.0050246 C 11.438949499999994 56.607624699999995 12.274949999999995 56.953324 13.126449499999994 56.953324 L 26.277849099999994 56.953324 C 26.830549099999995 56.953324 27.277849099999994 56.506024000000004 27.277849099999994 55.953324 C 27.277849099999994 55.4005248 26.830549099999995 54.953324 26.277849099999994 54.953324 L 13.1264496 54.953324 C 12.799349800000002 54.953324 12.4780502 54.8195235 12.246549600000002 54.5900237 C 12.0141497 54.3576247 11.881349600000002 54.0363242 11.881349600000002 53.7082259 L 11.881349600000002 3.1427238 C 11.881349600000002 2.5363238 12.373550500000002 2.0431237 12.979049700000001 2.0431237 L 38.4416504 2.0422237 C 38.4793511 4.3245239 38.4367485 10.6500232 38.3930512 14.7609232 C 38.3901482 15.0285233 38.4946518 15.2853239 38.6821518 15.474823800000001 C 38.8696518 15.6652239 39.1264496 15.7716235 39.3930512 15.7716235 L 52.1186486 15.7716235 L 52.1186486 53.871324400000006 C 52.1186486 54.1564272 52.0034486 54.434724700000004 51.8012505 54.63692650000001 C 51.5971489 54.84102420000001 51.3256493 54.95332510000001 51.0366517 54.95332510000001 L 50.5815507 54.95332510000001 C 50.0288507 54.95332510000001 49.5815507 55.400525900000005 49.5815507 55.95332510000001 C 49.5815507 56.50602510000001 50.0288507 56.95332510000001 50.5815507 56.95332510000001 L 51.0366517 56.95332510000001 C 51.8608514 56.95332510000001 52.6352502 56.63202460000001 53.2163506 56.05002390000001 C 53.7895508 55.4767245 54.1186486 54.68282500000001 54.1186486 53.871324400000006 L 54.1186486 14.7716236 C 54.1186485 14.7523241 54.1087494 14.7362242 54.1076508 14.717124 z M 40.4038506 13.7716236 C 40.45755 8.5080242 40.4741516 5.380024 40.4585495 3.4992237 C 42.79835129999999 5.8332238 47.088348399999994 10.1339235 50.712448099999996 13.7716236 L 40.4038506 13.7716236 z" stroke-linecap="round" />
</g>
		<g transform="matrix(12.5 0 0 12.5 84.74 204.6)"  >
<path style="stroke: none; stroke-width: 1; stroke-dasharray: none; stroke-linecap: butt; stroke-dashoffset: 0; stroke-linejoin: miter; stroke-miterlimit: 4; fill: rgb(0,220,130); fill-rule: nonzero; opacity: 1;" vector-effect="non-scaling-stroke"  transform=" translate(-38.78, -48.37)" d="M 46.4301491 49.4289246 C 46.3930512 49.3016243 46.330848700000004 49.1888237 46.2536507 49.0905228 C 47.6993485 47.3564225 48.570850400000005 45.1268235 48.570850400000005 42.692524000000006 C 48.570850400000005 37.169723600000005 44.093650800000006 32.692524000000006 38.570850400000005 32.692524000000006 C 33.0479508 32.692524000000006 28.570850400000005 37.169723600000005 28.570850400000005 42.692524000000006 C 28.570850400000005 45.26332480000001 29.549249700000004 47.600025200000005 31.143350600000005 49.371524900000004 L 27.7680492 60.942524 C 27.6577491 61.3205224 27.7797508 61.728725499999996 28.0796508 61.9845238 C 28.3794498 62.2394257 28.8003501 62.2931252 29.156749599999998 62.1261254 L 32.558151099999996 60.5099221 L 34.695850199999995 63.6095238 C 34.88425049999999 63.8830223 35.1938513 64.04222109999999 35.5190504 64.04222109999999 C 35.5756491 64.04222109999999 35.632350699999996 64.03732299999999 35.6889494 64.0275269 C 36.0737494 63.9611245 36.3842505 63.6779252 36.4848517 63.3009224 L 38.7794493 54.7395248 L 41.073749400000004 63.3009224 C 41.174350600000004 63.6769257 41.4839514 63.960125 41.867648900000006 64.0275269 C 41.92535000000001 64.037323 41.98294810000001 64.04222109999999 42.039550600000005 64.04222109999999 C 42.36375030000001 64.04222109999999 42.6714514 63.88492209999999 42.860851100000005 63.612522199999994 L 45.0044516 60.528522599999995 L 48.4038504 62.128124299999996 C 48.7592505 62.2941247 49.1792487 62.2384225 49.4799498 61.982624099999995 C 49.7788504 61.727722199999995 49.899948 61.320522399999994 49.7895506 60.94252399999999 L 46.4301491 49.4289246 z M 38.5708504 34.5973244 C 43.0345497 34.5973244 46.66605 38.228824599999996 46.66605 42.692524 C 46.66605 47.1563225 43.0345498 50.7878228 38.5708504 50.7878228 C 34.107051899999995 50.7878228 30.4755497 47.1563226 30.4755497 42.692524 C 30.4755497 38.2288246 34.1070518 34.5973244 38.5708504 34.5973244 z M 35.1137505 60.692524 L 33.721248700000004 58.6740227 C 33.441951800000005 58.269722 32.91165170000001 58.1261254 32.46924980000001 58.3380242 L 30.312049900000005 59.3625222 L 32.79624940000001 50.8474236 C 34.09655000000001 51.7700234 35.62485120000001 52.3866234 37.28245160000001 52.6003228 L 35.1137505 60.692524 z M 45.0913506 58.3586235 C 44.6489487 58.1505241 44.122551 58.2931251 43.8442498 58.693523400000004 L 42.4477502 60.7023239 L 40.260151 52.5391235 C 41.9091493 52.2579231 43.4178506 51.5759239 44.6862489 50.5926246 L 47.2485505 59.3742256 L 45.0913506 58.3586235 z" stroke-linecap="round" />
</g>
		<g transform="matrix(12.5 0 0 12.5 82.14 133.66)"  >
<path style="stroke: none; stroke-width: 1; stroke-dasharray: none; stroke-linecap: butt; stroke-dashoffset: 0; stroke-linejoin: miter; stroke-miterlimit: 4; fill: rgb(0,220,130); fill-rule: nonzero; opacity: 1;" vector-effect="non-scaling-stroke"  transform=" translate(-38.57, -42.69)" d="M 38.5708504 47.692524 C 41.3322487 47.692524 43.5708504 45.4540253 43.5708504 42.692524 C 43.5708504 39.931125699999996 41.3322487 37.692524 38.5708504 37.692524 C 35.8094483 37.692524 33.5708504 39.931125699999996 33.5708504 42.692524 C 33.5708504 45.4540253 35.8094482 47.692524 38.5708504 47.692524 z M 38.5708504 39.692524 C 40.2250519 39.692524 41.5708504 41.0383225 41.5708504 42.692524 C 41.5708504 44.3468247 40.2250519 45.692524 38.5708504 45.692524 C 36.9165497 45.692524 35.5708504 44.3468247 35.5708504 42.692524 C 35.5708504 41.0383224 36.9165497 39.692524 38.5708504 39.692524 z" stroke-linecap="round" />
</g>
</g>
</g>
</svg>