<?xml version="1.0" encoding="UTF-8" standalone="no" ?>
<!DOCTYPE svg PUBLIC "-//W3C//DTD SVG 1.1//EN" "http://www.w3.org/Graphics/SVG/1.1/DTD/svg11.dtd">
<svg xmlns="http://www.w3.org/2000/svg" xmlns:xlink="http://www.w3.org/1999/xlink" version="1.1" width="1080" height="1080" viewBox="0 0 1080 1080" xml:space="preserve">
<desc>Created with Fabric.js 5.2.4</desc>
<defs>
</defs>
<g transform="matrix(1 0 0 1 540 540)" id="171b40e1-e323-4007-a5df-0b5c1ad870ed"  >
<rect style="stroke: none; stroke-width: 1; stroke-dasharray: none; stroke-linecap: butt; stroke-dashoffset: 0; stroke-linejoin: miter; stroke-miterlimit: 4; fill: rgb(255,255,255); fill-rule: nonzero; opacity: 1; visibility: hidden;" vector-effect="non-scaling-stroke"  x="-540" y="-540" rx="0" ry="0" width="1080" height="1080" />
</g>
<g transform="matrix(1 0 0 1 540 540)" id="54268f6f-5a0a-4053-a798-ddff7be9f0f9"  >
</g>
<g transform="matrix(11.87 0 0 11.87 562.36 540)"  >
<g style="" vector-effect="non-scaling-stroke"   >
		<g transform="matrix(1 0 0 1 1.55 17.35)"  >
<path style="stroke: none; stroke-width: 1; stroke-dasharray: none; stroke-linecap: butt; stroke-dashoffset: 0; stroke-linejoin: miter; stroke-miterlimit: 4; fill: rgb(0,220,130); fill-rule: nonzero; opacity: 1;" vector-effect="non-scaling-stroke"  transform=" translate(-31.7, -50.45)" d="M 60.3 36.4 C 60.3 52 48.6 64.7 33.8 66 C 33.8 66 14.699999999999996 66.5 8.399999999999999 65.9 C 5.999999999999998 65.60000000000001 3.9999999999999982 64.10000000000001 3.0999999999999988 61.900000000000006 C 3.9999999999999987 62.300000000000004 4.899999999999999 62.60000000000001 5.899999999999999 62.7 C 8 62.9 11.5 63 16.4 63 C 23.599999999999998 63 31.5 62.8 31.5 62.8 L 31.6 62.8 C 39.5 62.099999999999994 46.8 58.5 52 52.599999999999994 C 56.5 47.599999999999994 59.4 41.3 60.2 34.699999999999996 C 60.3 35.2 60.3 35.8 60.3 36.4 z" stroke-linecap="round" />
</g>
		<g transform="matrix(1 0 0 1 -1.15 -3.25)"  >
<path style="stroke: none; stroke-width: 1; stroke-dasharray: none; stroke-linecap: butt; stroke-dashoffset: 0; stroke-linejoin: miter; stroke-miterlimit: 4; fill: rgb(0,220,130); fill-rule: nonzero; opacity: 1;" vector-effect="non-scaling-stroke"  transform=" translate(-29, -29.85)" d="M 58 30 C 58 45.6 46.3 58.3 31.4 59.5 C 31.4 59.5 12.299999999999997 60 6 59.4 C 2.6 59.1 0.09999999999999964 55.9 0 52.3 L 0.1 7.299999999999997 C 0.2 3.699999999999997 2.8000000000000003 0.49999999999999734 6.199999999999999 0.1999999999999975 C 12.5 -0.3000000000000025 31.599999999999998 0.2999999999999975 31.599999999999998 0.2999999999999975 C 46.4 1.6 58 14.4 58 30 z" stroke-linecap="round" />
</g>
</g>
</g>
<g transform="matrix(NaN NaN NaN NaN 0 0)"  >
<g style=""   >
</g>
</g>
</svg>