<?xml version="1.0" encoding="UTF-8" standalone="no" ?>
<!DOCTYPE svg PUBLIC "-//W3C//DTD SVG 1.1//EN" "http://www.w3.org/Graphics/SVG/1.1/DTD/svg11.dtd">
<svg xmlns="http://www.w3.org/2000/svg" xmlns:xlink="http://www.w3.org/1999/xlink" version="1.1" width="1080" height="1080" viewBox="0 0 1080 1080" xml:space="preserve">
<desc>Created with Fabric.js 5.2.4</desc>
<defs>
</defs>
<g transform="matrix(1 0 0 1 540 540)" id="c65cb0ba-75b4-437b-b582-281b7eccaddf"  >
<rect style="stroke: none; stroke-width: 1; stroke-dasharray: none; stroke-linecap: butt; stroke-dashoffset: 0; stroke-linejoin: miter; stroke-miterlimit: 4; fill: rgb(255,255,255); fill-rule: nonzero; opacity: 1; visibility: hidden;" vector-effect="non-scaling-stroke"  x="-540" y="-540" rx="0" ry="0" width="1080" height="1080" />
</g>
<g transform="matrix(1 0 0 1 540 540)" id="7803e708-c9f8-4594-a1bd-a08a91fa0714"  >
</g>
<g transform="matrix(33.07 0 0 33.07 570.69 515.87)" id="c4df99d8-4618-4e01-89fc-594cbcc10e51"  >
<path style="stroke: rgb(0,0,0); stroke-width: 0; stroke-dasharray: none; stroke-linecap: butt; stroke-dashoffset: 0; stroke-linejoin: miter; stroke-miterlimit: 4; fill: rgb(0,220,130); fill-rule: nonzero; opacity: 1;" vector-effect="non-scaling-stroke"  transform=" translate(-12, -12)" d="M 16.102 17.93 L 13.405000000000001 20.537 C 12.939000000000002 21.003999999999998 12.294 21.198999999999998 11.582 21.198999999999998 C 10.870000000000001 21.198999999999998 10.225000000000001 21.003999999999998 9.758000000000001 20.537 L 5.426000000000001 16.174 C 4.959000000000001 15.706999999999999 4.724000000000001 15.024 4.724000000000001 14.311 C 4.724000000000001 13.598 4.959000000000001 12.954 5.426000000000001 12.487 L 9.745000000000001 8.107 C 10.212000000000002 7.64 10.870000000000001 7.462 11.582 7.462 C 12.294 7.462 12.939 7.657 13.405000000000001 8.124 L 16.102 10.73 C 16.616 11.245000000000001 17.467 11.227 18.002 10.692 C 18.537 10.156 18.555 9.305 18.041 8.791 L 15.432 6.155 C 14.758365674599236 5.489055416233043 13.911170652396853 5.025783537016444 12.987 4.818000000000001 L 15.454 2.3150000000000004 C 15.97 1.8010000000000004 15.952 0.9490000000000003 15.417 0.41400000000000037 C 14.882 -0.12099999999999966 14.03 -0.13799999999999968 13.515 0.3760000000000004 L 3.415000000000001 10.477000000000002 C 2.434000000000001 11.459000000000001 1.921000000000001 12.814000000000002 1.921000000000001 14.312000000000001 C 1.921000000000001 15.81 2.434000000000001 17.207 3.415000000000001 18.187 L 7.762000000000001 22.548000000000002 C 8.743000000000002 23.527 10.099000000000002 24 11.596000000000002 24 C 13.093000000000002 24 14.449000000000002 23.488 15.431000000000001 22.506 L 18.04 19.869 C 18.554 19.355 18.535999999999998 18.504 18.000999999999998 17.969 C 17.465999999999998 17.434 16.615 17.416 16.101999999999997 17.93 z M 20.811 13.01 L 10.666 13.01 C 9.964 13.01 9.396 13.613999999999999 9.396 14.356 C 9.396 15.098 9.964 15.702 10.666 15.702 L 20.811 15.702 C 21.512 15.702 22.081 15.098 22.081 14.356 C 22.081 13.613999999999999 21.512 13.01 20.811 13.01 z" stroke-linecap="round" />
</g>
<g transform="matrix(NaN NaN NaN NaN 0 0)"  >
<g style=""   >
</g>
</g>
</svg>