<?xml version="1.0" encoding="UTF-8" standalone="no" ?>
<!DOCTYPE svg PUBLIC "-//W3C//DTD SVG 1.1//EN" "http://www.w3.org/Graphics/SVG/1.1/DTD/svg11.dtd">
<svg xmlns="http://www.w3.org/2000/svg" xmlns:xlink="http://www.w3.org/1999/xlink" version="1.1" width="1080" height="1080" viewBox="0 0 1080 1080" xml:space="preserve">
<desc>Created with Fabric.js 5.2.4</desc>
<defs>
</defs>
<g transform="matrix(1 0 0 1 540 540)" id="f828b581-551f-48c4-bf8f-8705cd632c48"  >
</g>
<g transform="matrix(1 0 0 1 540 540)" id="9d002f9d-71a6-4e0f-9bc2-10d240db49c1"  >
<rect style="stroke: none; stroke-width: 1; stroke-dasharray: none; stroke-linecap: butt; stroke-dashoffset: 0; stroke-linejoin: miter; stroke-miterlimit: 4; fill: rgb(255,255,255); fill-rule: nonzero; opacity: 1; visibility: hidden;" vector-effect="non-scaling-stroke"  x="-540" y="-540" rx="0" ry="0" width="1080" height="1080" />
</g>
<g transform="matrix(24.19 0 0 24.19 546.16 546.14)"  >
<path style="stroke: rgb(0,0,0); stroke-width: 0; stroke-dasharray: none; stroke-linecap: butt; stroke-dashoffset: 0; stroke-linejoin: miter; stroke-miterlimit: 4; fill: rgb(0,220,130); fill-rule: nonzero; opacity: 1;" vector-effect="non-scaling-stroke"  transform=" translate(-24.96, -25)" d="M 5.91992 6 L 20.58203 27.375 L 6.23047 44 L 9.410160000000001 44 L 21.986330000000002 29.42188 L 31.986330000000002 44.00001 L 44 44.00001 L 28.68164 21.669930000000004 L 42.199220000000004 6.000010000000005 L 39.029300000000006 6.000010000000005 L 27.27539000000001 19.617200000000004 L 17.93359000000001 6.000010000000003 z M 9.7168 8 L 16.88086 8 L 40.20313 42 L 33.03907 42 z" stroke-linecap="round" />
</g>
<g transform="matrix(NaN NaN NaN NaN 0 0)"  >
<g style=""   >
</g>
</g>
</svg>